<svg width="640" height="480" viewBox="0 0 640 480" fill="none" xmlns="http://www.w3.org/2000/svg">
  <rect width="640" height="480" rx="36" fill="#E9F4EE"/>
  <circle cx="320" cy="168" r="74" fill="#C9E2D3"/>
  <path d="M206 395C206 327.621 260.621 273 328 273H312C379.379 273 434 327.621 434 395V416H206V395Z" fill="#0C7C59"/>
  <path d="M289 187C289 168.775 303.775 154 322 154H325C343.225 154 358 168.775 358 187V208C358 226.225 343.225 241 325 241H322C303.775 241 289 226.225 289 208V187Z" fill="#F7D7C3"/>
  <path d="M276 162C276 132.729 299.729 109 329 109H336C365.271 109 389 132.729 389 162V176C389 205.271 365.271 229 336 229H329C299.729 229 276 205.271 276 176V162Z" fill="#204435"/>
  <rect x="246" y="283" width="148" height="96" rx="18" fill="#F7FBF8"/>
  <rect x="308" y="296" width="24" height="70" rx="12" fill="#0C7C59"/>
  <rect x="285" y="319" width="70" height="24" rx="12" fill="#0C7C59"/>
  <path d="M197 414H443" stroke="#D2DDD6" stroke-width="8" stroke-linecap="round"/>
</svg>
